<svg xmlns="http://www.w3.org/2000/svg" viewBox="0 0 20 20" fill="none">
  <path d="M2.20831 15.3142L3.33331 15.7683V10.3058L1.74831 14.2292C1.66543 14.434 1.66734 14.6634 1.7536 14.8669C1.83987 15.0704 2.00343 15.2313 2.20831 15.3142Z" fill="url(#paint0_linear_1216_1083)"/>
  <path d="M5.83331 17.5H7.38331L4.99998 11.6017V16.6667C4.99998 16.8877 5.08777 17.0996 5.24405 17.2559C5.40033 17.4122 5.61229 17.5 5.83331 17.5Z" fill="url(#paint1_linear_1216_1083)"/>
  <path d="M12.745 1.85166L5.01831 4.97332L5.01914 4.97416C4.81432 5.05689 4.65073 5.21756 4.56431 5.42085C4.4779 5.62415 4.47574 5.85344 4.55831 6.05832L9.23998 17.6475C9.28094 17.749 9.3415 17.8415 9.4182 17.9196C9.4949 17.9977 9.58624 18.0599 9.687 18.1027C9.78776 18.1455 9.89596 18.168 10.0054 18.169C10.1149 18.1699 10.2235 18.1493 10.325 18.1083L18.0516 14.9867C18.1532 14.9457 18.2456 14.8851 18.3237 14.8084C18.4018 14.7317 18.4641 14.6404 18.5069 14.5396C18.5496 14.4389 18.5722 14.3307 18.5731 14.2212C18.5741 14.1117 18.5535 14.0032 18.5125 13.9017L13.8291 2.31166C13.7463 2.10699 13.5855 1.94358 13.3822 1.85733C13.179 1.77108 12.9498 1.76904 12.745 1.85166Z" fill="url(#paint2_linear_1216_1083)"/>
  <defs>
    <linearGradient id="paint0_linear_1216_1083" x1="10.1303" y1="1.79114" x2="10.1303" y2="18.169" gradientUnits="userSpaceOnUse">
      <stop class="stop1" stop-color="#D4D4D3"/>
      <stop class="stop2" offset="1" stop-color="#D4D4D3"/>
    </linearGradient>
    <linearGradient id="paint1_linear_1216_1083" x1="10.1303" y1="1.79114" x2="10.1303" y2="18.169" gradientUnits="userSpaceOnUse">
      <stop class="stop1" stop-color="#D4D4D3"/>
      <stop class="stop2" offset="1" stop-color="#D4D4D3"/>
    </linearGradient>
    <linearGradient id="paint2_linear_1216_1083" x1="10.1303" y1="1.79114" x2="10.1303" y2="18.169" gradientUnits="userSpaceOnUse">
      <stop class="stop1" stop-color="#D4D4D3"/>
      <stop class="stop2" offset="1" stop-color="#D4D4D3"/>
    </linearGradient>
  </defs>
</svg>