<svg xmlns="http://www.w3.org/2000/svg" viewBox="0 0 202 3">
  <path d="M0 2.224V0H2.24V2.224H0Z"/>
  <path d="M8.28875 2.224V0H10.5287V2.224H8.28875Z"/>
  <path d="M16.5775 2.224V0H18.8175V2.224H16.5775Z"/>
  <path d="M24.8663 2.224V0H27.1063V2.224H24.8663Z"/>
  <path d="M33.155 2.224V0H35.395V2.224H33.155Z"/>
  <path d="M41.4438 2.224V0H43.6838V2.224H41.4438Z"/>
  <path d="M49.7325 2.224V0H51.9725V2.224H49.7325Z"/>
  <path d="M58.0213 2.224V0H60.2613V2.224H58.0213Z"/>
  <path d="M66.31 2.224V0H68.55V2.224H66.31Z"/>
  <path d="M74.5988 2.224V0H76.8388V2.224H74.5988Z"/>
  <path d="M82.8875 2.224V0H85.1275V2.224H82.8875Z"/>
  <path d="M91.1763 2.224V0H93.4163V2.224H91.1763Z"/>
  <path d="M99.465 2.224V0H101.705V2.224H99.465Z"/>
  <path d="M107.754 2.224V0H109.994V2.224H107.754Z"/>
  <path d="M116.043 2.224V0H118.283V2.224H116.043Z"/>
  <path d="M124.331 2.224V0H126.571V2.224H124.331Z"/>
  <path d="M132.62 2.224V0H134.86V2.224H132.62Z"/>
  <path d="M140.909 2.224V0H143.149V2.224H140.909Z"/>
  <path d="M149.198 2.224V0H151.438V2.224H149.198Z"/>
  <path d="M157.486 2.224V0H159.726V2.224H157.486Z"/>
  <path d="M165.775 2.224V0H168.015V2.224H165.775Z"/>
  <path d="M174.064 2.224V0H176.304V2.224H174.064Z"/>
  <path d="M182.353 2.224V0H184.593V2.224H182.353Z"/>
  <path d="M190.641 2.224V0H192.881V2.224H190.641Z"/>
  <path d="M198.93 2.224V0H201.17V2.224H198.93Z"/>
</svg>