<svg xmlns="http://www.w3.org/2000/svg" viewBox="0 0 20 20">
  <path d="M3.1525 2.35501L10 0.833344L16.8475 2.35501C17.0326 2.39615 17.198 2.49915 17.3167 2.64701C17.4353 2.79488 17.5 2.97877 17.5 3.16834V11.4908C17.4999 12.314 17.2967 13.1243 16.9082 13.85C16.5198 14.5757 15.9582 15.1943 15.2733 15.6508L10 19.1667L4.72667 15.6508C4.04189 15.1944 3.48038 14.5759 3.09196 13.8504C2.70353 13.1248 2.5002 12.3146 2.5 11.4917V3.16834C2.50003 2.97877 2.5647 2.79488 2.68332 2.64701C2.80195 2.49915 2.96745 2.39615 3.1525 2.35501ZM10 11.25L12.4492 12.5375L11.9817 9.81084L13.9625 7.87918L11.2242 7.48084L10 5.00001L8.775 7.48084L6.0375 7.87918L8.01833 9.81084L7.55167 12.5375L10 11.25Z"/>
</svg>